<svg viewBox="0 0 200 100" xmlns="http://www.w3.org/2000/svg" width="200" height="100">
<rect x="0" y="0" width="10" height="10" fill="#87CEEB" />
<rect x="10" y="0" width="10" height="10" fill="#87CEEB" />
<rect x="20" y="0" width="10" height="10" fill="#87CEEB" />
<rect x="30" y="0" width="10" height="10" fill="#87CEEB" />
<rect x="40" y="0" width="10" height="10" fill="#87CEEB" />
<rect x="50" y="0" width="10" height="10" fill="#87CEEB" />
<rect x="60" y="0" width="10" height="10" fill="#87CEEB" />
<rect x="70" y="0" width="10" height="10" fill="#87CEEB" />
<rect x="80" y="0" width="10" height="10" fill="#87CEEB" />
<rect x="90" y="0" width="10" height="10" fill="#87CEEB" />
<rect x="100" y="0" width="10" height="10" fill="#87CEEB" />
<rect x="110" y="0" width="10" height="10" fill="#87CEEB" />
<rect x="120" y="0" width="10" height="10" fill="#87CEEB" />
<rect x="130" y="0" width="10" height="10" fill="#87CEEB" />
<rect x="140" y="0" width="10" height="10" fill="#87CEEB" />
<rect x="150" y="0" width="10" height="10" fill="#87CEEB" />
<rect x="160" y="0" width="10" height="10" fill="#87CEEB" />
<rect x="170" y="0" width="10" height="10" fill="#87CEEB" />
<rect x="180" y="0" width="10" height="10" fill="#87CEEB" />
<rect x="190" y="0" width="10" height="10" fill="#87CEEB" />
<rect x="0" y="10" width="10" height="10" fill="#87CEEB" />
<rect x="10" y="10" width="10" height="10" fill="#87CEEB" />
<rect x="20" y="10" width="10" height="10" fill="#87CEEB" />
<rect x="30" y="10" width="10" height="10" fill="#87CEEB" />
<rect x="40" y="10" width="10" height="10" fill="#87CEEB" />
<rect x="50" y="10" width="10" height="10" fill="#87CEEB" />
<rect x="60" y="10" width="10" height="10" fill="#87CEEB" />
<rect x="70" y="10" width="10" height="10" fill="#87CEEB" />
<rect x="80" y="10" width="10" height="10" fill="#87CEEB" />
<rect x="90" y="10" width="10" height="10" fill="#87CEEB" />
<rect x="100" y="10" width="10" height="10" fill="#87CEEB" />
<rect x="110" y="10" width="10" height="10" fill="#87CEEB" />
<rect x="120" y="10" width="10" height="10" fill="#87CEEB" />
<rect x="130" y="10" width="10" height="10" fill="#87CEEB" />
<rect x="140" y="10" width="10" height="10" fill="#87CEEB" />
<rect x="150" y="10" width="10" height="10" fill="#87CEEB" />
<rect x="160" y="10" width="10" height="10" fill="#87CEEB" />
<rect x="170" y="10" width="10" height="10" fill="#87CEEB" />
<rect x="180" y="10" width="10" height="10" fill="#87CEEB" />
<rect x="190" y="10" width="10" height="10" fill="#87CEEB" />
<rect x="0" y="20" width="10" height="10" fill="#87CEEB" />
<rect x="10" y="20" width="10" height="10" fill="#87CEEB" />
<rect x="20" y="20" width="10" height="10" fill="#87CEEB" />
<rect x="30" y="20" width="10" height="10" fill="#87CEEB" />
<rect x="40" y="20" width="10" height="10" fill="#87CEEB" />
<rect x="50" y="20" width="10" height="10" fill="#87CEEB" />
<rect x="60" y="20" width="10" height="10" fill="#87CEEB" />
<rect x="70" y="20" width="10" height="10" fill="#87CEEB" />
<rect x="80" y="20" width="10" height="10" fill="#87CEEB" />
<rect x="90" y="20" width="10" height="10" fill="#87CEEB" />
<rect x="100" y="20" width="10" height="10" fill="#87CEEB" />
<rect x="110" y="20" width="10" height="10" fill="#87CEEB" />
<rect x="120" y="20" width="10" height="10" fill="#87CEEB" />
<rect x="130" y="20" width="10" height="10" fill="#87CEEB" />
<rect x="140" y="20" width="10" height="10" fill="#87CEEB" />
<rect x="150" y="20" width="10" height="10" fill="#87CEEB" />
<rect x="160" y="20" width="10" height="10" fill="#87CEEB" />
<rect x="170" y="20" width="10" height="10" fill="#87CEEB" />
<rect x="180" y="20" width="10" height="10" fill="#87CEEB" />
<rect x="190" y="20" width="10" height="10" fill="#87CEEB" />
<rect x="0" y="30" width="10" height="10" fill="#87CEEB" />
<rect x="10" y="30" width="10" height="10" fill="#87CEEB" />
<rect x="20" y="30" width="10" height="10" fill="#87CEEB" />
<rect x="30" y="30" width="10" height="10" fill="#87CEEB" />
<rect x="40" y="30" width="10" height="10" fill="#87CEEB" />
<rect x="50" y="30" width="10" height="10" fill="#C0C0C0" />
<rect x="60" y="30" width="10" height="10" fill="#ADD8E6" />
<rect x="70" y="30" width="10" height="10" fill="#ADD8E6" />
<rect x="80" y="30" width="10" height="10" fill="#C0C0C0" />
<rect x="90" y="30" width="10" height="10" fill="#ADD8E6" />
<rect x="100" y="30" width="10" height="10" fill="#ADD8E6" />
<rect x="110" y="30" width="10" height="10" fill="#C0C0C0" />
<rect x="120" y="30" width="10" height="10" fill="#ADD8E6" />
<rect x="130" y="30" width="10" height="10" fill="#ADD8E6" />
<rect x="140" y="30" width="10" height="10" fill="#C0C0C0" />
<rect x="150" y="30" width="10" height="10" fill="#87CEEB" />
<rect x="160" y="30" width="10" height="10" fill="#87CEEB" />
<rect x="170" y="30" width="10" height="10" fill="#87CEEB" />
<rect x="180" y="30" width="10" height="10" fill="#87CEEB" />
<rect x="190" y="30" width="10" height="10" fill="#87CEEB" />
<rect x="0" y="40" width="10" height="10" fill="#87CEEB" />
<rect x="10" y="40" width="10" height="10" fill="#87CEEB" />
<rect x="20" y="40" width="10" height="10" fill="#87CEEB" />
<rect x="30" y="40" width="10" height="10" fill="#87CEEB" />
<rect x="40" y="40" width="10" height="10" fill="#87CEEB" />
<rect x="50" y="40" width="10" height="10" fill="#C0C0C0" />
<rect x="60" y="40" width="10" height="10" fill="#ADD8E6" />
<rect x="70" y="40" width="10" height="10" fill="#ADD8E6" />
<rect x="80" y="40" width="10" height="10" fill="#C0C0C0" />
<rect x="90" y="40" width="10" height="10" fill="#ADD8E6" />
<rect x="100" y="40" width="10" height="10" fill="#ADD8E6" />
<rect x="110" y="40" width="10" height="10" fill="#C0C0C0" />
<rect x="120" y="40" width="10" height="10" fill="#ADD8E6" />
<rect x="130" y="40" width="10" height="10" fill="#ADD8E6" />
<rect x="140" y="40" width="10" height="10" fill="#C0C0C0" />
<rect x="150" y="40" width="10" height="10" fill="#87CEEB" />
<rect x="160" y="40" width="10" height="10" fill="#87CEEB" />
<rect x="170" y="40" width="10" height="10" fill="#87CEEB" />
<rect x="180" y="40" width="10" height="10" fill="#87CEEB" />
<rect x="190" y="40" width="10" height="10" fill="#87CEEB" />
<rect x="0" y="50" width="10" height="10" fill="#87CEEB" />
<rect x="10" y="50" width="10" height="10" fill="#87CEEB" />
<rect x="20" y="50" width="10" height="10" fill="#87CEEB" />
<rect x="30" y="50" width="10" height="10" fill="#C0C0C0" />
<rect x="40" y="50" width="10" height="10" fill="#C0C0C0" />
<rect x="50" y="50" width="10" height="10" fill="#C0C0C0" />
<rect x="60" y="50" width="10" height="10" fill="#C0C0C0" />
<rect x="70" y="50" width="10" height="10" fill="#C0C0C0" />
<rect x="80" y="50" width="10" height="10" fill="#C0C0C0" />
<rect x="90" y="50" width="10" height="10" fill="#C0C0C0" />
<rect x="100" y="50" width="10" height="10" fill="#C0C0C0" />
<rect x="110" y="50" width="10" height="10" fill="#C0C0C0" />
<rect x="120" y="50" width="10" height="10" fill="#C0C0C0" />
<rect x="130" y="50" width="10" height="10" fill="#C0C0C0" />
<rect x="140" y="50" width="10" height="10" fill="#C0C0C0" />
<rect x="150" y="50" width="10" height="10" fill="#C0C0C0" />
<rect x="160" y="50" width="10" height="10" fill="#C0C0C0" />
<rect x="170" y="50" width="10" height="10" fill="#87CEEB" />
<rect x="180" y="50" width="10" height="10" fill="#87CEEB" />
<rect x="190" y="50" width="10" height="10" fill="#87CEEB" />
<rect x="0" y="60" width="10" height="10" fill="#87CEEB" />
<rect x="10" y="60" width="10" height="10" fill="#87CEEB" />
<rect x="20" y="60" width="10" height="10" fill="#87CEEB" />
<rect x="30" y="60" width="10" height="10" fill="#C0C0C0" />
<rect x="40" y="60" width="10" height="10" fill="#C0C0C0" />
<rect x="50" y="60" width="10" height="10" fill="#C0C0C0" />
<rect x="60" y="60" width="10" height="10" fill="#C0C0C0" />
<rect x="70" y="60" width="10" height="10" fill="#C0C0C0" />
<rect x="80" y="60" width="10" height="10" fill="#C0C0C0" />
<rect x="90" y="60" width="10" height="10" fill="#C0C0C0" />
<rect x="100" y="60" width="10" height="10" fill="#C0C0C0" />
<rect x="110" y="60" width="10" height="10" fill="#C0C0C0" />
<rect x="120" y="60" width="10" height="10" fill="#C0C0C0" />
<rect x="130" y="60" width="10" height="10" fill="#C0C0C0" />
<rect x="140" y="60" width="10" height="10" fill="#C0C0C0" />
<rect x="150" y="60" width="10" height="10" fill="#C0C0C0" />
<rect x="160" y="60" width="10" height="10" fill="#C0C0C0" />
<rect x="170" y="60" width="10" height="10" fill="#87CEEB" />
<rect x="180" y="60" width="10" height="10" fill="#87CEEB" />
<rect x="190" y="60" width="10" height="10" fill="#87CEEB" />
<rect x="0" y="70" width="10" height="10" fill="#87CEEB" />
<rect x="10" y="70" width="10" height="10" fill="#87CEEB" />
<rect x="20" y="70" width="10" height="10" fill="#87CEEB" />
<rect x="30" y="70" width="10" height="10" fill="#C0C0C0" />
<rect x="40" y="70" width="10" height="10" fill="#C0C0C0" />
<rect x="50" y="70" width="10" height="10" fill="#000000" />
<rect x="60" y="70" width="10" height="10" fill="#000000" />
<rect x="70" y="70" width="10" height="10" fill="#C0C0C0" />
<rect x="80" y="70" width="10" height="10" fill="#C0C0C0" />
<rect x="90" y="70" width="10" height="10" fill="#C0C0C0" />
<rect x="100" y="70" width="10" height="10" fill="#C0C0C0" />
<rect x="110" y="70" width="10" height="10" fill="#C0C0C0" />
<rect x="120" y="70" width="10" height="10" fill="#000000" />
<rect x="130" y="70" width="10" height="10" fill="#000000" />
<rect x="140" y="70" width="10" height="10" fill="#C0C0C0" />
<rect x="150" y="70" width="10" height="10" fill="#C0C0C0" />
<rect x="160" y="70" width="10" height="10" fill="#C0C0C0" />
<rect x="170" y="70" width="10" height="10" fill="#87CEEB" />
<rect x="180" y="70" width="10" height="10" fill="#87CEEB" />
<rect x="190" y="70" width="10" height="10" fill="#87CEEB" />
<rect x="0" y="80" width="10" height="10" fill="#DEB887" />
<rect x="10" y="80" width="10" height="10" fill="#DEB887" />
<rect x="20" y="80" width="10" height="10" fill="#DEB887" />
<rect x="30" y="80" width="10" height="10" fill="#DEB887" />
<rect x="40" y="80" width="10" height="10" fill="#DEB887" />
<rect x="50" y="80" width="10" height="10" fill="#000000" />
<rect x="60" y="80" width="10" height="10" fill="#000000" />
<rect x="70" y="80" width="10" height="10" fill="#DEB887" />
<rect x="80" y="80" width="10" height="10" fill="#DEB887" />
<rect x="90" y="80" width="10" height="10" fill="#DEB887" />
<rect x="100" y="80" width="10" height="10" fill="#DEB887" />
<rect x="110" y="80" width="10" height="10" fill="#DEB887" />
<rect x="120" y="80" width="10" height="10" fill="#000000" />
<rect x="130" y="80" width="10" height="10" fill="#000000" />
<rect x="140" y="80" width="10" height="10" fill="#DEB887" />
<rect x="150" y="80" width="10" height="10" fill="#DEB887" />
<rect x="160" y="80" width="10" height="10" fill="#DEB887" />
<rect x="170" y="80" width="10" height="10" fill="#DEB887" />
<rect x="180" y="80" width="10" height="10" fill="#DEB887" />
<rect x="190" y="80" width="10" height="10" fill="#DEB887" />
<rect x="0" y="90" width="10" height="10" fill="#DEB887" />
<rect x="10" y="90" width="10" height="10" fill="#DEB887" />
<rect x="20" y="90" width="10" height="10" fill="#DEB887" />
<rect x="30" y="90" width="10" height="10" fill="#DEB887" />
<rect x="40" y="90" width="10" height="10" fill="#DEB887" />
<rect x="50" y="90" width="10" height="10" fill="#DEB887" />
<rect x="60" y="90" width="10" height="10" fill="#DEB887" />
<rect x="70" y="90" width="10" height="10" fill="#DEB887" />
<rect x="80" y="90" width="10" height="10" fill="#DEB887" />
<rect x="90" y="90" width="10" height="10" fill="#DEB887" />
<rect x="100" y="90" width="10" height="10" fill="#DEB887" />
<rect x="110" y="90" width="10" height="10" fill="#DEB887" />
<rect x="120" y="90" width="10" height="10" fill="#DEB887" />
<rect x="130" y="90" width="10" height="10" fill="#DEB887" />
<rect x="140" y="90" width="10" height="10" fill="#DEB887" />
<rect x="150" y="90" width="10" height="10" fill="#DEB887" />
<rect x="160" y="90" width="10" height="10" fill="#DEB887" />
<rect x="170" y="90" width="10" height="10" fill="#DEB887" />
<rect x="180" y="90" width="10" height="10" fill="#DEB887" />
<rect x="190" y="90" width="10" height="10" fill="#DEB887" />
</svg>
